<?xml version="1.0" standalone="no"?>
<!DOCTYPE svg PUBLIC "-//W3C//DTD SVG 20010904//EN"
 "http://www.w3.org/TR/2001/REC-SVG-20010904/DTD/svg10.dtd">
<svg version="1.0" xmlns="http://www.w3.org/2000/svg"
 width="350.000000pt" height="350.000000pt" viewBox="0 0 350.000000 350.000000"
 preserveAspectRatio="xMidYMid meet">
<metadata>
Created by potrace 1.11, written by Peter Selinger 2001-2013
</metadata>
<g transform="translate(0.000000,350.000000) scale(0.100000,-0.100000)"
fill="#000000" stroke="none">
<path d="M1633 3443 c-3 -7 -10 -10 -17 -6 -6 3 -8 2 -3 -2 4 -5 0 -19 -8 -31
-8 -13 -16 -31 -18 -41 -1 -10 -6 -24 -10 -30 -5 -7 -5 -13 0 -13 4 0 1 -5 -7
-10 -10 -5 -15 -22 -15 -44 1 -19 -2 -33 -6 -31 -4 3 -10 -11 -13 -30 -4 -19
-12 -35 -19 -35 -9 0 -9 -2 0 -8 8 -5 6 -17 -7 -45 -10 -20 -13 -34 -7 -30 8
5 8 2 0 -9 -7 -8 -10 -18 -6 -21 3 -4 2 -7 -3 -7 -5 0 -11 -9 -12 -20 -1 -11
-3 -29 -4 -40 -1 -11 -6 -20 -11 -20 -5 0 -7 -7 -4 -15 4 -8 2 -17 -3 -20 -5
-3 -6 -13 -3 -22 5 -12 3 -14 -7 -8 -8 5 -11 4 -7 -2 3 -5 1 -27 -5 -49 -6
-21 -11 -44 -10 -51 2 -6 -2 -14 -7 -18 -6 -3 -8 -12 -4 -20 3 -8 1 -15 -5
-15 -6 0 -9 -8 -7 -17 1 -10 0 -22 -4 -28 -3 -5 -7 -21 -9 -35 -2 -13 -8 -28
-14 -31 -7 -4 -5 -9 3 -12 9 -4 10 -6 2 -6 -7 -1 -10 -8 -7 -16 4 -9 0 -15 -7
-15 -11 0 -11 -3 1 -10 10 -6 11 -10 3 -10 -7 0 -13 -6 -13 -14 0 -8 -7 -16
-15 -20 -8 -3 -15 0 -15 7 0 8 -3 8 -9 -2 -6 -9 -10 -10 -16 -2 -5 9 -10 9
-21 0 -8 -6 -14 -8 -14 -4 0 3 -17 -11 -39 -32 -30 -29 -36 -42 -29 -55 5 -10
5 -18 0 -18 -5 0 -9 -7 -9 -15 0 -8 5 -15 10 -15 5 0 7 -7 3 -15 -3 -9 0 -15
9 -15 8 0 15 -8 15 -19 0 -10 10 -25 22 -33 16 -11 22 -25 23 -61 0 -26 -2
-47 -5 -47 -4 0 -5 -18 -3 -41 2 -22 -1 -38 -6 -35 -5 3 -12 -6 -15 -19 -4
-14 -10 -24 -14 -21 -4 2 -23 -29 -42 -69 -20 -41 -31 -71 -25 -69 5 3 3 0 -5
-8 -8 -7 -16 -20 -18 -28 -2 -8 -8 -18 -14 -21 -5 -3 -9 -9 -9 -13 2 -17 -1
-24 -20 -44 -11 -13 -21 -31 -22 -42 -1 -11 -4 -20 -7 -20 -4 0 -6 -18 -6 -39
1 -22 -2 -37 -7 -34 -10 6 1 -56 16 -85 7 -13 26 -31 42 -40 17 -10 32 -19 35
-22 3 -3 11 -5 18 -6 6 -1 18 -2 26 -2 10 -2 14 -16 13 -48 0 -25 4 -49 9 -52
13 -9 13 -52 -1 -52 -5 0 -4 -4 3 -8 9 -7 6 -15 -13 -36 -14 -15 -25 -31 -25
-37 0 -5 -7 -12 -15 -15 -8 -4 -12 -10 -9 -15 3 -5 0 -9 -6 -9 -6 0 -9 -4 -5
-9 3 -5 -1 -15 -8 -23 -8 -7 -12 -19 -9 -26 2 -6 -1 -12 -7 -12 -6 0 -10 -3
-9 -7 2 -11 -14 -47 -23 -53 -5 -3 7 -24 26 -45 18 -22 32 -41 30 -43 -6 -7
47 -52 61 -52 8 0 12 -4 9 -10 -3 -5 3 -10 14 -10 12 0 21 -6 21 -14 0 -8 5
-16 10 -18 6 -2 11 -50 11 -116 1 -62 5 -115 10 -117 12 -8 9 -195 -4 -195 -6
0 -7 -3 -4 -7 9 -9 -13 -34 -24 -27 -5 3 -9 0 -9 -6 0 -6 -4 -9 -8 -6 -5 3
-19 -5 -33 -18 -13 -12 -30 -21 -37 -18 -6 2 -12 -3 -12 -12 0 -9 -5 -16 -12
-16 -6 0 -9 -3 -5 -6 3 -4 0 -13 -8 -20 -7 -8 -12 -25 -11 -39 2 -14 0 -25 -4
-25 -4 0 -6 -22 -6 -50 1 -40 6 -56 29 -80 16 -16 35 -30 43 -30 9 0 12 -4 9
-10 -4 -6 1 -7 10 -3 10 3 21 0 26 -8 6 -11 9 -11 9 -1 0 9 5 10 19 3 10 -6
21 -8 24 -4 4 3 13 0 21 -6 10 -9 16 -9 21 -1 5 8 10 8 20 0 10 -8 15 -8 20 0
5 8 10 8 20 0 9 -8 15 -8 20 0 4 7 13 7 27 -1 15 -8 19 -8 14 0 -4 7 1 11 13
11 11 0 26 7 34 15 8 8 17 12 20 9 2 -3 8 7 11 21 4 14 11 23 16 20 6 -3 10 3
10 14 0 12 5 21 10 21 6 0 10 6 10 14 0 8 9 21 20 29 11 8 17 16 15 19 -3 3 6
8 20 10 14 3 28 1 31 -4 3 -5 12 -4 20 3 23 19 73 13 93 -10 10 -12 22 -21 27
-21 12 0 47 -65 47 -85 0 -8 4 -15 9 -15 5 0 6 -5 3 -10 -4 -6 -1 -18 7 -27 9
-12 9 -15 1 -9 -7 4 -13 2 -13 -3 0 -6 7 -11 15 -11 8 0 14 -5 12 -10 -1 -6
12 -18 28 -28 17 -9 32 -20 33 -25 2 -4 8 -5 13 -1 5 3 15 2 22 -3 18 -11 35
-13 124 -14 46 0 89 3 95 8 7 4 15 8 18 8 42 6 72 47 55 74 -3 6 -1 11 5 11 7
0 10 19 9 50 -2 28 -5 50 -9 50 -3 0 -7 10 -7 22 -1 13 -7 24 -13 26 -5 2 -10
10 -10 18 0 8 -7 14 -15 14 -8 0 -15 4 -15 9 0 4 -20 21 -45 37 -25 15 -45 33
-45 40 0 7 -6 15 -12 17 -10 4 -10 6 0 6 9 1 10 7 4 18 -7 15 -8 78 -2 93 1 3
2 9 1 14 -1 4 3 14 9 21 8 10 7 16 -7 24 -10 6 -13 11 -7 11 19 0 52 74 50
113 -1 20 2 37 6 37 4 0 8 10 7 23 -1 35 5 61 16 69 6 5 4 8 -5 8 -13 0 -13 1
0 10 8 5 16 14 16 20 1 5 3 12 4 15 1 3 3 9 4 14 2 16 48 73 54 67 3 -3 14 1
24 11 10 9 18 13 18 9 0 -3 14 7 31 24 19 17 32 41 34 58 1 16 5 34 9 40 4 7
2 12 -3 12 -6 0 -11 9 -11 20 0 11 -5 20 -10 20 -6 0 -9 4 -8 8 4 12 -25 82
-34 82 -4 0 -7 3 -7 8 3 20 -2 33 -11 27 -6 -4 -10 -3 -9 2 5 29 -2 53 -13 47
-8 -5 -7 0 2 11 8 10 14 20 13 22 -2 1 -3 18 -3 36 0 29 6 35 54 60 47 25 71
53 67 80 -1 4 5 7 11 7 9 0 8 4 -2 10 -8 5 -10 10 -4 10 8 0 11 24 9 73 -4 86
-6 97 -16 97 -5 0 -6 7 -3 15 4 8 2 15 -3 15 -5 0 -10 12 -11 27 -1 15 -6 31
-11 36 -12 12 -2 39 10 31 9 -5 39 18 39 31 0 17 -36 40 -64 40 -17 0 -31 5
-31 10 0 6 -4 16 -8 23 -5 6 -5 17 -2 22 3 6 1 10 -4 10 -6 0 -11 9 -11 21 0
11 -4 18 -8 15 -5 -3 -15 10 -22 29 -7 19 -17 32 -22 29 -4 -3 -3 7 2 21 5 14
6 24 1 21 -5 -3 -11 1 -15 9 -3 8 -2 15 3 15 4 0 6 11 3 25 -2 14 -8 22 -13
20 -4 -3 -6 4 -4 15 2 11 -2 20 -8 20 -7 0 -6 4 3 10 13 8 12 10 -2 10 -11 0
-18 8 -18 21 0 12 -4 17 -11 13 -6 -3 2 13 18 37 15 24 31 45 35 47 4 2 5 9 2
17 -3 7 -1 16 4 19 14 8 3 43 -14 50 -12 5 -13 10 -3 28 6 13 8 20 4 16 -4 -4
-13 0 -20 9 -7 9 -21 17 -31 18 -11 0 -25 4 -31 8 -6 4 -14 3 -18 -3 -4 -6
-11 -7 -17 -4 -6 4 -17 -1 -25 -11 -12 -17 -13 -17 -13 -2 0 9 -4 17 -9 17
-10 0 -27 39 -23 53 1 4 -5 10 -13 13 -8 3 -13 10 -10 15 3 4 -5 30 -19 58
-16 34 -20 52 -12 55 7 3 7 5 -1 5 -7 1 -13 8 -13 17 0 8 -4 13 -9 10 -4 -3
-8 2 -8 12 0 9 -5 31 -11 47 -7 17 -12 34 -11 39 0 5 -4 12 -9 15 -6 3 -12 17
-13 31 -2 14 -8 28 -14 32 -5 4 -10 13 -11 20 -2 34 -17 77 -25 72 -5 -3 -6 2
-3 11 4 8 1 22 -6 30 -7 8 -9 15 -4 15 5 0 2 5 -7 10 -10 6 -15 21 -14 39 1
16 -1 29 -4 28 -3 -1 -6 1 -6 4 0 3 -7 14 -15 24 -13 17 -13 18 0 11 12 -6 11
-4 -1 6 -9 7 -14 19 -11 27 3 8 0 11 -7 7 -7 -5 -11 2 -11 18 0 14 -5 26 -10
26 -5 0 -9 3 -8 8 2 14 -32 81 -46 89 -14 8 -16 12 -16 31 0 13 -52 9 -57 -5z"/>
</g>
</svg>
